:SAMPLES-PER-SECOND 30
:FULLY-SPECIFIED
:DEGREES
693
root  -46.4149 36.4002 0.901887 175.905 -82.2519 171.12
RightUpLeg  10.2419 5.53322 -6.65065
RightLeg  45.5739 4.38264 4.47908
RightFoot  -30.5369 1.79825 11.8978
RightToes  -8.73116e-010 0 -3.6325e-017
Spine  31.1586 0.175654 5.02031
Spine1  9.47542 2.69024 -5.3863
HEad  -26.9738 1.71275 -3.11291
LeftShoulder1  1.09311 0.345139 -28.5121
LeftArm  5.25059 27.9314 -31.9036
LeftForeArm  5.22623 -14.9146 -7.4787
LeftHand  -0.0512825 4.09658 1.96364
RightShoulder  -0.226868 -4.15272 27.3399
RightArm  17.3236 -1.28192 45.3032
RightForeArm  -6.30398 16.0423 6.16021
RightHand  -0.876661 6.23445 -9.06315
LeftUpLeg  -20.8861 12.0288 4.32731
LeftLeg  11.9801 6.46184 -0.325956
LeftFoot  16.5876 0.206967 -1.29006
LeftToes  -5.63919e-011 3.32596e-011 1.92487e-011
694
root  -45.0221 36.3706 0.685771 168.822 -81.5416 177.305
RightUpLeg  10.0509 3.62962 -5.65343
RightLeg  43.3981 3.85886 3.60268
RightFoot  -32.6716 1.06071 6.76047
RightToes  -8.73116e-010 0 -3.6325e-017
Spine  30.431 -0.514742 7.41342
Spine1  9.60891 2.89396 -5.92147
HEad  -26.3174 2.23858 -5.91439
LeftShoulder1  0.965392 0.756279 -29.0457
LeftArm  3.49985 27.7514 -32.7683
LeftForeArm  7.2765 -15.6698 -6.77392
LeftHand  -0.0919726 2.64154 3.25875
RightShoulder  -0.26392 -4.26118 27.4049
RightArm  15.7889 2.59522 45.2783
RightForeArm  -5.50396 16.6889 5.76961
RightHand  -0.833936 6.15053 -8.6962
LeftUpLeg  -18.9873 10.7015 6.70652
LeftLeg  7.52431 8.46872 -0.962985
LeftFoot  12.5553 1.02432 -5.15534
LeftToes  -5.63919e-011 3.32596e-011 1.92487e-011
695
root  -43.5587 36.4092 0.505773 160.142 -81.6849 -174.881
RightUpLeg  8.85055 0.738748 -4.64979
RightLeg  42.866 3.52987 3.21019
RightFoot  -32.7378 0.455352 3.58373
RightToes  -8.73116e-010 0 -3.6325e-017
Spine  30.036 -1.42045 9.7434
Spine1  10.0423 2.55049 -5.544
HEad  -26.1802 2.95246 -8.87258
LeftShoulder1  0.874138 1.0662 -29.7663
LeftArm  0.660929 26.4055 -34.5664
LeftForeArm  11.5981 -15.9113 -6.13507
LeftHand  -0.0274925 2.67933 0.398872
RightShoulder  -0.179132 -4.02239 26.6238
RightArm  12.8613 5.99971 45.4687
RightForeArm  -5.86692 17.5976 5.27134
RightHand  -0.942843 6.38413 -9.59694
LeftUpLeg  -17.0296 10.1567 8.08876
LeftLeg  2.58469 7.90157 -1.34471
LeftFoot  6.00543 1.03733 -7.18238
LeftToes  -5.63919e-011 3.32596e-011 1.92487e-011
696
root  -42.2149 36.4699 0.302225 154.84 -83.0238 -169.561
RightUpLeg  6.69439 -1.38429 -3.99237
RightLeg  43.1663 3.39764 3.1112
RightFoot  -32.0347 0.151301 2.01851
RightToes  -8.73116e-010 0 -3.6325e-017
Spine  28.8208 -1.87167 10.1762
Spine1  9.7709 1.62362 -3.89379
HEad  -25.7854 4.29413 -9.85486
LeftShoulder1  0.839314 1.16039 -29.7443
LeftArm  -0.991429 24.7414 -36.7428
LeftForeArm  14.1535 -15.358 -6.14407
LeftHand  -0.0914715 2.60262 3.28412
RightShoulder  -0.130297 -3.8781 26.2199
RightArm  11.0081 9.0277 45.0146
RightForeArm  -6.37238 18.2013 5.06286
RightHand  -0.992473 6.92902 -9.65737
LeftUpLeg  -15.7426 9.21275 7.99412
LeftLeg  -2.40938 5.70428 -1.33616
LeftFoot  0.997647 1.23785 -11.3211
LeftToes  -5.63919e-011 3.32596e-011 1.92487e-011
697
root  -40.89 36.6737 0.127451 148.863 -85.2303 -163.65
RightUpLeg  4.88992 -3.56393 -3.79172
RightLeg  42.868 2.72368 2.41245
RightFoot  -30.3229 -0.0247618 1.092
RightToes  -8.73116e-010 0 -3.6325e-017
Spine  28.2133 -2.22047 9.36484
Spine1  8.83848 0.394137 -1.81716
HEad  -25.1483 5.18631 -8.64287
LeftShoulder1  0.919963 0.880002 -28.9539
LeftArm  -2.06539 23.3998 -39.035
LeftForeArm  17.3348 -15.5683 -5.87122
LeftHand  -0.039419 3.42011 1.45772
RightShoulder  -0.0918456 -3.76413 25.7496
RightArm  9.25951 10.4455 44.4961
RightForeArm  -5.71373 19.4861 4.86937
RightHand  -0.845943 6.68963 -8.4558
LeftUpLeg  -15.9692 8.50055 6.95073
LeftLeg  -1.89079 5.60643 -1.53139
LeftFoot  0.880243 1.35881 -12.6943
LeftToes  -5.63919e-011 3.32596e-011 1.92487e-011
698
root  -39.6474 37.0669 0.0289156 137.561 -87.4381 -152.649
RightUpLeg  4.00784 -5.05488 -3.84221
RightLeg  41.2212 2.06198 1.64599
RightFoot  -27.59 -0.0599138 0.886165
RightToes  -8.73116e-010 0 -3.6325e-017
Spine  27.831 -2.44068 8.86695
Spine1  8.35842 -0.354363 -0.463884
HEad  -25.5977 4.70666 -7.34044
LeftShoulder1  0.926897 0.888736 -29.3547
LeftArm  -0.19959 20.0704 -39.1732
LeftForeArm  20.9741 -16.2115 -5.82166
LeftHand  -0.0321134 2.53383 0.65024
RightShoulder  -0.0890469 -3.75714 25.5262
RightArm  6.84434 10.2559 43.4677
RightForeArm  -5.11902 21.5539 4.918
RightHand  -0.965946 6.55066 -9.69825
LeftUpLeg  -16.2682 8.46701 5.62789
LeftLeg  2.8512 7.19948 -1.69802
LeftFoot  0.687032 1.12115 -10.6548
LeftToes  -5.63919e-011 3.32596e-011 1.92487e-011
699
root  -38.5352 37.5929 0.022366 100.239 -89.2048 -115.374
RightUpLeg  3.63944 -6.38142 -4.63664
RightLeg  38.2653 2.04732 1.45531
RightFoot  -24.3251 -0.104781 0.533393
RightToes  -8.73116e-010 0 -3.6325e-017
Spine  26.7612 -2.58283 9.02409
Spine1  8.42895 -0.544324 -0.464079
HEad  -25.9413 3.22898 -6.81043
LeftShoulder1  0.916829 0.933072 -29.5779
LeftArm  2.94448 16.0727 -39.1577
LeftForeArm  23.3904 -17.0369 -5.84139
LeftHand  -0.0731341 2.25993 2.35253
RightShoulder  -0.0399486 -3.60296 25.348
RightArm  4.65227 9.07309 42.3635
RightForeArm  -4.23958 23.3658 5.19817
RightHand  -0.978172 6.83961 -9.59196
LeftUpLeg  -15.8145 10.0739 3.66102
LeftLeg  8.25218 7.24231 -0.794886
LeftFoot  -0.0337674 0.917848 -9.25887
LeftToes  -5.63919e-011 3.32596e-011 1.92487e-011
700
root  -37.4913 38.1691 0.0878144 11.4877 -89.6388 -26.4278
RightUpLeg  3.41835 -7.22295 -5.47325
RightLeg  34.4807 2.3312 1.4643
RightFoot  -20.6439 -0.104579 0.421519
RightToes  -8.73116e-010 0 -3.6325e-017
Spine  25.6671 -2.42401 9.35606
Spine1  7.90525 -0.257679 -0.863156
HEad  -25.1415 1.969 -6.43357
LeftShoulder1  0.960192 0.786517 -29.2382
LeftArm  3.80522 13.0218 -40.0333
LeftForeArm  24.0677 -17.4864 -5.70769
LeftHand  -0.046421 3.01688 1.41866
RightShoulder  -0.00337311 -3.48804 24.9418
RightArm  4.80238 7.40321 41.6884
RightForeArm  -4.19805 24.1538 5.37831
RightHand  -0.877583 6.04305 -9.21157
LeftUpLeg  -14.9602 13.6058 1.76452
LeftLeg  14.1821 4.42549 0.798143
LeftFoot  -1.10413 0.747152 -8.2492
LeftToes  -5.63919e-011 3.32596e-011 1.92487e-011
701
root  -36.4959 38.6932 0.202571 -34.3782 -88.6904 19.9555
RightUpLeg  3.08458 -8.04592 -6.16505
RightLeg  30.4745 2.61481 1.41845
RightFoot  -16.8999 -0.0944611 0.447628
RightToes  -8.73116e-010 0 -3.6325e-017
Spine  23.959 -2.41278 9.69843
Spine1  7.58313 -0.120488 -1.47595
HEad  -23.3655 1.57817 -6.23502
LeftShoulder1  0.905846 0.894889 -28.6211
LeftArm  2.88737 10.8774 -41.328
LeftForeArm  22.1682 -17.991 -5.39917
LeftHand  -0.0322226 4.11066 0.775606
RightShoulder  -0.0550909 -3.65295 24.9971
RightArm  7.99596 6.37687 41.0674
RightForeArm  -6.05124 24.0874 5.45613
RightHand  -0.929984 6.24659 -9.57901
LeftUpLeg  -13.9719 12.9998 1.32995
LeftLeg  20.5953 3.97006 2.08089
LeftFoot  -2.3265 0.567578 -7.03222
LeftToes  -5.63919e-011 3.32596e-011 1.92487e-011
702
root  -35.521 39.1018 0.355746 -40.8414 -88.185 26.9183
RightUpLeg  2.69236 -8.32366 -6.72015
RightLeg  26.7312 2.93254 1.37241
RightFoot  -13.7493 -0.0715937 1.03346
RightToes  -8.73116e-010 0 -3.6325e-017
Spine  22.3978 -2.32091 9.77876
Spine1  6.99638 0.0263478 -1.86529
HEad  -21.2616 1.60855 -6.5078
LeftShoulder1  0.878574 0.929855 -28.0321
LeftArm  1.91554 9.42081 -42.6093
LeftForeArm  18.7602 -18.5074 -5.16065
LeftHand  -0.0677838 2.69931 2.41168
RightShoulder  -0.089129 -3.76042 25.0925
RightArm  11.7571 5.4179 40.7448
RightForeArm  -7.05612 23.5293 5.38228
RightHand  -0.863982 5.89741 -9.18403
LeftUpLeg  -12.2036 10.5115 1.92318
LeftLeg  26.639 4.35426 2.6892
LeftFoot  -4.01758 0.457639 -6.75496
LeftToes  -5.63919e-011 3.32596e-011 1.92487e-011
703
root  -34.5437 39.3548 0.545771 -48.9083 -88.0757 35.523
RightUpLeg  1.71565 -8.39403 -7.08013
RightLeg  24.0185 3.29766 1.37654
RightFoot  -10.9029 -0.0773764 1.33818
RightToes  -8.73116e-010 0 -3.6325e-017
Spine  20.956 -2.21756 9.46038
Spine1  6.24117 -0.015732 -1.57572
HEad  -19.1177 1.98733 -6.89027
LeftShoulder1  0.752894 1.33014 -28.5148
LeftArm  2.57707 7.86058 -42.6934
LeftForeArm  15.7219 -19.385 -4.95613
LeftHand  -0.0799503 2.65985 2.83551
RightShoulder  0.00443466 -3.46313 24.6152
RightArm  16.1026 3.91034 40.8227
RightForeArm  -8.28023 23.5932 5.45684
RightHand  -0.84688 5.71827 -9.14965
LeftUpLeg  -10.0856 8.94461 2.73609
LeftLeg  32.2276 3.40509 2.66243
LeftFoot  -5.77101 0.345125 -6.40712
LeftToes  -5.63919e-011 3.32596e-011 1.92487e-011
704
root  -33.5192 39.4556 0.774147 -45.127 -87.8927 32.1674
RightUpLeg  0.499165 -8.92413 -7.27673
RightLeg  22.0306 3.62607 1.35324
RightFoot  -8.48764 -0.0902839 1.277
RightToes  -8.73116e-010 0 -3.6325e-017
Spine  19.6369 -2.52993 9.53865
Spine1  5.83426 -0.225896 -2.01441
HEad  -17.5501 2.61272 -6.94251
LeftShoulder1  0.754646 1.30004 -28.1209
LeftArm  2.28968 6.82195 -43.3483
LeftForeArm  16.3413 -21.0894 -4.3675
LeftHand  -0.0517608 3.30313 2.0122
RightShoulder  -0.00132251 -3.48152 24.5448
RightArm  19.796 2.64854 41.3002
RightForeArm  -9.27131 23.5895 5.50547
RightHand  -0.867876 5.37449 -9.64349
LeftUpLeg  -7.56847 6.53515 3.71021
LeftLeg  36.9456 2.64004 2.49072
LeftFoot  -7.05238 0.293789 -6.70055
LeftToes  -5.63919e-011 3.32596e-011 1.92487e-011
705
root  -32.479 39.4211 1.00941 -41.3505 -87.8614 28.805
RightUpLeg  -1.33063 -9.10342 -7.27391
RightLeg  21.2299 3.82604 1.31832
RightFoot  -6.63586 -0.112783 1.65338
RightToes  -8.73116e-010 0 -3.6325e-017
Spine  18.0925 -2.77239 9.22433
Spine1  6.12939 -0.557909 -1.93838
HEad  -16.5838 2.88203 -6.76159
LeftShoulder1  0.718149 1.41344 -28.2312
LeftArm  2.4527 5.47007 -43.3179
LeftForeArm  17.5062 -23.0142 -4.09936
LeftHand  -0.0716904 2.63136 2.39807
RightShoulder  -0.0301863 -3.57486 24.4426
RightArm  22.255 1.39955 42.0971
RightForeArm  -9.03032 23.4505 5.4694
RightHand  -0.851612 5.62997 -9.26074
LeftUpLeg  -4.66693 4.61887 4.87915
LeftLeg  40.5579 1.68967 1.93012
LeftFoot  -8.11644 0.227359 -6.33298
LeftToes  -5.63919e-011 3.32596e-011 1.92487e-011
